<?xml version="1.0" encoding="utf-8"?>
<!-- Generator: Adobe Illustrator 22.0.1, SVG Export Plug-In . SVG Version: 6.00 Build 0)  -->
<svg version="1.1" id="Layer_1" xmlns="http://www.w3.org/2000/svg" xmlns:xlink="http://www.w3.org/1999/xlink" x="0px" y="0px"
	 viewBox="0 0 665.7 366.2" style="enable-background:new 0 0 665.7 366.2;" xml:space="preserve">
<style type="text/css">
	.st0{fill:#F4951B;}
	.st1{fill:#FFFFFF;}
	.st2{fill:#026FB6;}
</style>
<g>
	<g>
		<path class="st0" d="M138.7,52.3c15.5,0,25.6-8.3,25.6-20.6v-0.3c0-13.3-10-20.3-25.1-20.3h-23.6v41.1h23.1V52.3z M105,1.4h35
			c21.1,0,35,11.2,35,29.6v0.3c0,20.2-16.8,30.6-36.7,30.6h-22.7v33H105V1.4z"/>
		<path class="st0" d="M184.7,55.7V1.4h10.5v53.7c0,20.2,10.8,31.5,28.6,31.5c17.2,0,28.2-10.4,28.2-30.8V1.4h10.6v53.5
			c0,27.2-15.6,41.4-39,41.4C200.5,96.3,184.7,82.2,184.7,55.7"/>
		<path class="st0" d="M318.8,49.1c14,0,24-7.2,24-19.2v-0.3c0-11.5-8.8-18.4-23.9-18.4h-28.8v37.9H318.8z M279.6,1.4h40.2
			c11.5,0,20.7,3.5,26.6,9.4c4.5,4.5,7.2,11.1,7.2,18.4v0.3c0,15.5-10.7,24.6-25.4,27.2l28.7,38.2h-13l-27.1-36.3h-26.7v36.3h-10.5
			L279.6,1.4L279.6,1.4z"/>
	</g>
	<polygon class="st0" points="368.1,1.4 368.1,94.9 436.3,94.9 436.3,85.3 378.6,85.3 378.6,52.5 429.7,52.5 429.7,42.9 378.6,42.9 
		378.6,11 435.7,11 435.7,1.4 	"/>
	<path class="st1" d="M57.6,219.5c24.4,5.4,49.1,30.3,78.9,30.3c6.3,0,12.9-0.9,19.7-3.8c-2.3,22.5-11.7,36.9-24.4,36.9
		c-33.6,0-63.2-53.3-104.7-53.3c-1.9,0-3.5,0-5.4,0.2l35-162.7c-20.4,8.5-32.9,26.1-32.9,51.2c0,12,3.1,13.9,3.3,16
		c-16.2,0-25.1-5.9-25.1-22.8c0-31.2,43.2-61.1,82.4-61.1c3.3,0,6.3,0.2,9.4,0.5L57.6,219.5z"/>
	<path class="st1" d="M160.5,155.2c-4.9-1.2-6.3-5.2-6.3-9.9c0-6.6,3.1-10.8,7.3-12.7c-0.5-9.9-2.8-13.6-8.9-13.6
		c-16.7,0-31.2,43-31.2,66c0,15.5,3.1,19,12,19C144.7,204,156.7,182.9,160.5,155.2 M180.7,142.3c0.9,0.5,1.9,0.5,2.6,0.5
		c10.8,0,26.1-7,36.2-14.1l2.1,6.3c-8.9,9.6-24.4,16.7-41.6,19.5c-3.8,43.4-27.2,70.7-56.1,70.7c-21.8,0-37.6-10.3-37.6-37.1
		c0-27,16-83.4,64.3-83.4C170.8,104.7,180.7,117.6,180.7,142.3"/>
	<path class="st1" d="M223.9,264.6c4.9,0,10.6-7,13.6-20.9l1.4-6.8c-12,4.5-23,10.6-23,20C215.9,260.2,218.7,264.6,223.9,264.6
		 M300.4,106.8l-23.2,109c14.3-5.2,23-13.2,29.6-33.6h9.9c-9.2,31-27,39.9-41.6,43.9l-3.5,16.9c-7,33.6-26.8,39.9-42.3,39.9
		c-14.3,0-26.3-7.5-26.3-22.8c0-19.7,20.7-29.6,38.3-35l2.8-12.7c-9.9,11-20.2,13.2-28.2,13.2c-14.1,0-25.1-8.5-25.1-28.2
		c0-4.5,0.7-9.6,1.9-15.3l16-75.4h33.8l-16.9,79.8c-0.5,1.9-0.7,4-0.7,5.9c0,5.4,1.6,10.3,7,10.3c8.7,0,14.8-8.2,18.3-19.3
		l16.4-76.8h33.8L300.4,106.8L300.4,106.8z"/>
	<path class="st1" d="M338.5,184.6c0,18.1,7.5,18.3,11.7,18.3c6.8,0,16.7-7,19.5-20.7l11.3-53.1c0-2.8-2.1-8.9-9.6-8.9
		C351.4,120.2,338.5,162.5,338.5,184.6 M419.5,106.8l-16.9,79.8c-0.7,3.1-0.9,5.4-0.9,7.5c0,6.6,3.1,10.1,9.6,10.1
		c9.2,0,15.5-10.3,19-22.1h9.9c-13.4,38.3-34.5,43.4-47.2,43.4c-13.1,0-21.6-7.5-23-21.6c-7.3,10.8-18.3,21.6-35,21.6
		c-16,0-31.2-9.9-31.2-37.8c0-31.7,19.5-82.2,60.4-82.2c13.4,0,19,5.2,19,12v1.6l2.6-12.4h33.7V106.8z"/>
	<path class="st1" d="M490.2,59.9l-27,126.8c-0.7,3.1-0.9,5.4-0.9,7.5c0,6.6,3.1,8.7,9.6,8.7c9.2,0,17.6-8.9,21.1-20.7h9.9
		c-13.4,38.3-36.6,43.4-49.3,43.4c-14.1,0-25.1-8.5-25.1-28.2c0-4.5,0.7-9.6,1.9-15.3l25.1-117.6L490.2,59.9z"/>
	<path class="st1" d="M550.7,69.7l-8,37.1h14.1l-1.9,9.4h-14.1l-15,70.4c-0.7,3.1-0.9,5.4-0.9,7.5c0,6.6,3.1,8.7,9.6,8.7
		c9.2,0,17.6-8.9,21.1-20.7h9.9c-13.4,38.3-36.6,43.4-49.3,43.4c-14.1,0-25.1-8.5-25.1-28.2c0-4.5,0.7-9.6,1.9-15.3l14.1-66h-7.8
		l1.9-9.4h7.8l7-32.4L550.7,69.7z"/>
	<path class="st1" d="M586.9,262c4.7,0,10.8-4.5,13.9-18.3l2.8-13.9c-14.8,4.9-26.1,11.7-26.1,24.4C577.5,257.6,581.7,262,586.9,262
		 M605.5,106.8l-16.9,79.8c-0.5,1.9-0.7,4-0.7,5.9c0,5.4,1.6,10.3,7,10.3c9.2,0,15.3-8.9,18.8-20.7l16-75.4h34.1L635,243
		c-7,33.6-27.2,39.9-42.7,39.9c-14.3,0-27.7-10.1-27.7-25.4c0-21.8,18.3-28.6,40.6-35.2l2.3-10.3c-10.1,11.5-20.7,13.6-28.7,13.6
		c-14.1,0-25.1-8.5-25.1-28.2c0-4.5,0.7-9.6,1.9-15.3l16-75.4L605.5,106.8L605.5,106.8z"/>
</g>
<g>
	<g>
		<path class="st1" d="M158.5,292.8h6.5c3.7,0,6.2,0.2,7.5,0.5c1.8,0.5,3.4,1.4,4.5,2.8c1.2,1.4,1.8,3.2,1.8,5.3
			c0,2.2-0.6,3.9-1.7,5.3c-1.1,1.4-2.7,2.3-4.7,2.8c-1.5,0.4-4.2,0.5-8.2,0.5h-2.3v15.1h-3.2v-32.3H158.5z M161.8,296v11l5.5,0.1
			c2.2,0,3.8-0.2,4.9-0.6c1-0.4,1.8-1.1,2.4-2c0.6-0.9,0.9-1.9,0.9-3s-0.3-2.1-0.9-3c-0.6-0.9-1.4-1.5-2.3-1.9
			c-1-0.4-2.5-0.6-4.7-0.6H161.8z"/>
		<path class="st1" d="M196.7,300.7c3.7,0,6.8,1.3,9.2,4c2.2,2.4,3.3,5.3,3.3,8.7c0,3.3-1.2,6.3-3.5,8.8s-5.3,3.8-9,3.8
			s-6.7-1.3-9-3.8s-3.5-5.4-3.5-8.8c0-3.3,1.1-6.2,3.3-8.6C189.9,302,193,300.7,196.7,300.7z M196.7,303.7c-2.6,0-4.8,0.9-6.6,2.8
			s-2.8,4.2-2.8,6.9c0,1.7,0.4,3.3,1.3,4.8c0.8,1.5,2,2.7,3.4,3.5s3,1.2,4.7,1.2s3.3-0.4,4.7-1.2c1.4-0.8,2.6-2,3.4-3.5
			c0.8-1.5,1.3-3.1,1.3-4.8c0-2.7-0.9-5-2.8-6.9C201.4,304.6,199.2,303.7,196.7,303.7z"/>
		<path class="st1" d="M213.9,301.3h3.2l7.3,17.4l7.6-17.4h0.6l7.7,17.4l7.5-17.4h3.2l-10.4,24H240l-7.7-17.2l-7.7,17.2H224
			L213.9,301.3z"/>
		<path class="st1" d="M277,317.3l2.6,1.4c-0.9,1.7-1.8,3-3,4.1c-1.1,1-2.4,1.8-3.8,2.3s-3,0.8-4.7,0.8c-3.9,0-7-1.3-9.2-3.8
			c-2.2-2.6-3.3-5.5-3.3-8.7c0-3,0.9-5.8,2.8-8.1c2.4-3,5.5-4.5,9.5-4.5c4.1,0,7.3,1.5,9.8,4.6c1.7,2.2,2.6,4.9,2.6,8.2h-21.6
			c0.1,2.8,0.9,5.1,2.7,6.8c1.7,1.8,3.8,2.7,6.4,2.7c1.2,0,2.4-0.2,3.6-0.6s2.1-1,2.9-1.7C275.2,320,276.1,318.9,277,317.3z
			 M277,310.8c-0.4-1.6-1-3-1.8-3.9c-0.8-1-1.8-1.8-3.1-2.4c-1.3-0.6-2.7-0.9-4.1-0.9c-2.4,0-4.4,0.8-6.1,2.3
			c-1.2,1.1-2.2,2.8-2.8,5H277V310.8z"/>
		<path class="st1" d="M287.3,301.3h3.1v3.5c0.9-1.4,1.9-2.4,3-3.1c1-0.7,2.1-1,3.3-1c0.9,0,1.8,0.3,2.7,0.8l-1.6,2.6
			c-0.6-0.3-1.2-0.4-1.6-0.4c-1,0-2,0.4-3,1.3c-1,0.8-1.7,2.2-2.2,3.9c-0.4,1.4-0.6,4.1-0.6,8.3v8.1h-3.1L287.3,301.3L287.3,301.3z"
			/>
		<path class="st1" d="M324.4,317.3l2.6,1.4c-0.9,1.7-1.8,3-3,4.1c-1.1,1-2.4,1.8-3.8,2.3s-3,0.8-4.7,0.8c-3.9,0-7-1.3-9.2-3.8
			c-2.2-2.6-3.3-5.5-3.3-8.7c0-3,0.9-5.8,2.8-8.1c2.4-3,5.5-4.5,9.5-4.5c4.1,0,7.3,1.5,9.8,4.6c1.7,2.2,2.6,4.9,2.6,8.2h-21.6
			c0.1,2.8,0.9,5.1,2.7,6.8c1.7,1.8,3.8,2.7,6.4,2.7c1.2,0,2.4-0.2,3.6-0.6s2.1-1,2.9-1.7C322.6,320,323.5,318.9,324.4,317.3z
			 M324.4,310.8c-0.4-1.6-1-3-1.8-3.9c-0.8-1-1.8-1.8-3.1-2.4c-1.3-0.6-2.7-0.9-4.1-0.9c-2.4,0-4.4,0.8-6.1,2.3
			c-1.2,1.1-2.2,2.8-2.8,5h17.9V310.8z"/>
		<path class="st1" d="M359.8,292v33.2h-3v-4.1c-1.3,1.6-2.7,2.8-4.4,3.5c-1.6,0.8-3.4,1.2-5.3,1.2c-3.4,0-6.3-1.2-8.7-3.7
			c-2.4-2.5-3.6-5.5-3.6-9s1.2-6.4,3.6-8.9s5.3-3.7,8.7-3.7c2,0,3.7,0.4,5.3,1.3c1.6,0.8,3,2.1,4.2,3.8V292H359.8z M347.4,303.6
			c-1.7,0-3.3,0.4-4.8,1.3c-1.5,0.8-2.6,2-3.5,3.6c-0.9,1.5-1.3,3.1-1.3,4.8c0,1.7,0.4,3.3,1.3,4.8s2,2.7,3.5,3.6s3,1.3,4.7,1.3
			s3.3-0.4,4.8-1.3s2.7-2,3.5-3.5s1.2-3.1,1.2-4.9c0-2.8-0.9-5.1-2.7-7C352.4,304.6,350.1,303.6,347.4,303.6z"/>
		<path class="st1" d="M383.8,325.2V292h3.1v13.4c1.3-1.6,2.7-2.8,4.3-3.6c1.6-0.8,3.3-1.2,5.3-1.2c3.4,0,6.3,1.2,8.7,3.7
			c2.4,2.5,3.6,5.4,3.6,9c0,3.5-1.2,6.4-3.6,8.9s-5.3,3.7-8.7,3.7c-2,0-3.7-0.4-5.3-1.3c-1.6-0.8-3-2.1-4.2-3.8v4.4H383.8z
			 M396.1,322.9c1.7,0,3.3-0.4,4.7-1.3c1.5-0.8,2.6-2,3.5-3.6c0.9-1.5,1.3-3.1,1.3-4.8c0-1.7-0.4-3.3-1.3-4.9
			c-0.9-1.5-2-2.7-3.5-3.6s-3-1.3-4.7-1.3s-3.3,0.4-4.8,1.3s-2.7,2-3.5,3.5s-1.2,3.1-1.2,4.9c0,2.8,0.9,5.1,2.7,7
			C391.2,322,393.4,322.9,396.1,322.9z"/>
		<path class="st1" d="M412.4,301.3h3.3l8.2,18.5l8-18.5h3.3L420.9,334h-3.3l4.6-10.6L412.4,301.3z"/>
	</g>
</g>
<path class="st1" d="M561.2,309c0,31.6-25.6,57.2-57.2,57.2s-57.2-25.6-57.2-57.2s25.6-57.2,57.2-57.2
	C535.6,251.9,561.2,277.5,561.2,309"/>
<path class="st2" d="M554.9,308.9c0,28.2-22.8,51-51,51s-51-22.8-51-51s22.8-51,51-51C532.1,258,554.9,280.8,554.9,308.9"/>
<path class="st1" d="M517.4,316.9c0,0-13.9,1.4-16,1.5c-2,0.1-1.9-1.9-1.6-2.8s5-23.2,5-23.2s-48.1,6-51.6,6.2c-0.7,3-1,8-0.9,10.3
	c0,0,7-0.9,8.3-1c1.2-0.1,1.8,0.1,1.5,1.9c-0.6,4-3.8,18.4-4.4,21.4c0,0,0.5,1,1,1.9c0,0,5.4-0.8,7.9-1.1c3.7-0.5,4.5-2.4,4.6-3.1
	c0.2-0.7,4.2-16.5,4.8-20c0.6-3.5,1.7-3,2.4-3.1c0.7-0.1,3.2-0.2,7.1-0.9c2.7-0.5,4.4-3.9,4.4-3.9s-4.5,21-5.3,24.1
	c-0.7,3,2,4.4,3.4,4.3c0.8-0.1,17.3-1.9,22.5-2.6c5.8-0.8,5.4-1.9,5.8-2.6c0.4-0.7,2-5.4,2-5.4L517.4,316.9z"/>
<path class="st1" d="M554.5,308.2L554.5,308.2c0.4-1-0.2-1-0.2-1l-9.4,1.1c-2,0.2-2.6,1.6-2.6,1.6c-3,4.8-8.3,6.9-11.8,4.7
	c-3.5-2.2-3.8-7.9-0.8-12.7c3.1-4.8,8.3-6.9,11.8-4.7c0,0,1.1,0.7,1.6,1.9c0.5,1.1,0.7,2.1,3.8,1.5s7-1.4,7-1.4s0.1,0,0.3-0.1
	c-0.2-1-0.4-2-0.6-3c-0.1-0.3-0.3-0.6-0.5-1v0.1c-5-8-17.1-9.4-26.9-3.2c-9.9,6.2-13.8,17.7-8.8,25.6c5,8,17.1,9.4,26.9,3.2
	C549.5,317.6,553,313,554.5,308.2"/>
</svg>
